<svg xmlns="http://www.w3.org/2000/svg" width="1600" height="900" viewBox="0 0 1600 900" role="img" aria-label="Subtle grid background">
  <rect width="1600" height="900" fill="#102a43"/>
  <g stroke="#2f5d74" stroke-width="1" opacity="0.45">
    <path d="M0 90H1600M0 180H1600M0 270H1600M0 360H1600M0 450H1600M0 540H1600M0 630H1600M0 720H1600M0 810H1600"/>
    <path d="M100 0V900M200 0V900M300 0V900M400 0V900M500 0V900M600 0V900M700 0V900M800 0V900M900 0V900M1000 0V900M1100 0V900M1200 0V900M1300 0V900M1400 0V900M1500 0V900"/>
  </g>
  <g fill="#f6ad55" opacity="0.85">
    <circle cx="230" cy="190" r="7"/>
    <circle cx="510" cy="420" r="7"/>
    <circle cx="890" cy="250" r="7"/>
    <circle cx="1250" cy="610" r="7"/>
  </g>
</svg>
